# xmcd
#
# Track frame offsets:
#	150
#	17205
#	31777
#	48700
#	64832
#	78345
#	91180
#	104830
#	119385
#	133920
#	148797
#	162490
#	181507
#	198397
#
# Disc length: 2815 seconds
#
# Revision: 1
# Processed by: cddbd v1.5.1PL2 Copyright (c) Steve Scherf et al.
# Submitted via: audiograbber 1.83.01
#
DISCID=c50afd0e
DTITLE=Nem Walter e Nena de Alagoas - Os Mensageiros Em Vaneirão
DYEAR=1900
DGENRE=Vaneirão
TTITLE0=Meu Esporte é Vaquejada
TTITLE1=Mulher do Andar Faceiro
TTITLE2=Sou Vaneirão
TTITLE3=Vem Sentir Calor
TTITLE4=Falso Amor Não Me Convém
TTITLE5=Solidão
TTITLE6=Pra Deixar Mulher Doidona
TTITLE7=Fazer Amor
TTITLE8=Forrozeiro Doido
TTITLE9=Ciúme Só Faz Brigar
TTITLE10=Entre as Belezas do Mundo
TTITLE11=Parque Cigano
TTITLE12=Um Recado a Luizinho
TTITLE13=Bela Floresta
EXTD=
EXTT0=
EXTT1=
EXTT2=
EXTT3=
EXTT4=
EXTT5=
EXTT6=
EXTT7=
EXTT8=
EXTT9=
EXTT10=
EXTT11=
EXTT12=
EXTT13=
PLAYORDER=
